<svg width="16" height="10" viewBox="0 0 16 10" fill="none" xmlns="http://www.w3.org/2000/svg">
<path d="M1.25901 1.229L7.25901 4.4522C7.46061 4.56019 7.72141 4.6114 7.98381 4.6114C8.24621 4.6114 8.50701 4.56019 8.70861 4.4522L14.7086 1.229C15.0998 1.0186 15.4694 0.200195 14.7518 0.200195H1.21661C0.499006 0.200195 0.868606 1.0186 1.25901 1.229ZM14.8902 2.9914L8.70861 6.213C8.43661 6.3554 8.24621 6.3722 7.98381 6.3722C7.72141 6.3722 7.53101 6.3554 7.25901 6.213C6.98701 6.0706 1.55261 3.2218 1.10861 2.9906C0.796606 2.8274 0.799806 3.0186 0.799806 3.1658V9.0002C0.799806 9.33619 1.25261 9.8002 1.59981 9.8002H14.3998C14.747 9.8002 15.1998 9.33619 15.1998 9.0002V3.1666C15.1998 3.0194 15.203 2.8282 14.8902 2.9914Z" fill="#22B8F0"/>
</svg>
